<svg width="24" height="18" viewBox="0 0 24 18" fill="none" xmlns="http://www.w3.org/2000/svg">
<g clip-path="url(#clip0)">
<rect width="24" height="18" fill="#E5E5E5"/>
<mask id="mask0" style="mask-type:alpha" maskUnits="userSpaceOnUse" x="0" y="0" width="24" height="18">
<rect width="24" height="18" fill="#E5E5E5"/>
</mask>
<g mask="url(#mask0)">
</g>
<mask id="path-3-outside-1" maskUnits="userSpaceOnUse" x="4.8125" y="1.8125" width="14" height="14" fill="black">
<rect fill="white" x="4.8125" y="1.8125" width="14" height="14"/>
<path fill-rule="evenodd" clip-rule="evenodd" d="M12 2.8125C10.7762 2.8125 9.57994 3.17539 8.56241 3.85528C7.54488 4.53517 6.75181 5.50153 6.2835 6.63215C5.81518 7.76276 5.69265 9.00686 5.93139 10.2071C6.17014 11.4074 6.75944 12.5099 7.62478 13.3752C8.49012 14.2406 9.59262 14.8299 10.7929 15.0686C11.9931 15.3074 13.2372 15.1848 14.3679 14.7165C15.4985 14.2482 16.4648 13.4551 17.1447 12.4376C17.8246 11.4201 18.1875 10.2238 18.1875 9C18.1875 7.35897 17.5356 5.78516 16.3752 4.62478C15.2148 3.4644 13.641 2.8125 12 2.8125ZM12 14.8438C10.8442 14.8438 9.71439 14.501 8.75339 13.8589C7.79239 13.2168 7.04338 12.3041 6.60108 11.2363C6.15878 10.1685 6.04306 8.99352 6.26854 7.85994C6.49402 6.72636 7.05058 5.68511 7.86785 4.86785C8.68511 4.05058 9.72637 3.49402 10.8599 3.26854C11.9935 3.04305 13.1685 3.15878 14.2363 3.60108C15.3041 4.04338 16.2168 4.79239 16.8589 5.75339C17.501 6.71439 17.8438 7.84422 17.8438 9C17.8438 10.5499 17.2281 12.0362 16.1322 13.1322C15.0362 14.2281 13.5499 14.8438 12 14.8438ZM16.8709 6.89969C16.849 6.90056 16.8274 6.90582 16.8075 6.91515C16.7876 6.92449 16.7697 6.93771 16.755 6.95404C16.7402 6.97038 16.7289 6.98949 16.7217 7.01027C16.7144 7.03104 16.7114 7.05305 16.7128 7.075C16.7128 7.34312 16.4688 7.63187 15.96 7.91031C15.322 8.25335 15.4028 8.48342 15.6696 9.24276L15.6713 9.2475C15.8981 9.89719 14.7603 11.7844 14.2206 12.1934L14.1416 12.2553L14.0934 12.1659C13.9961 11.9031 13.9472 11.6247 13.9491 11.3444V10.6569C13.9491 10.6225 13.9491 10.4541 13.8425 9.83531L13.6706 9.14781C13.6629 9.12254 13.65 9.09914 13.6328 9.07906L13.0863 8.46719C13.0689 8.45878 13.0503 8.45299 13.0313 8.45C12.5067 8.23207 11.9695 8.04611 11.4225 7.89312C11.3297 7.8725 11.2713 7.79344 11.2541 7.66625C11.2434 7.52536 11.2729 7.38433 11.3392 7.25958C11.4056 7.13483 11.506 7.03148 11.6288 6.96156C11.7358 6.91086 11.8557 6.89407 11.9725 6.91344C12.0216 6.92624 12.073 6.92731 12.1226 6.91656C12.1721 6.90581 12.2185 6.88354 12.2578 6.85156C12.3644 6.74844 12.3678 6.58344 12.33 6.14344C12.3288 6.01432 12.3014 5.88679 12.2494 5.7686C12.1974 5.65041 12.1219 5.54403 12.0275 5.45594C11.8883 5.37128 11.7337 5.31494 11.5727 5.29017C11.4116 5.26539 11.2473 5.27266 11.0891 5.31156C11.0117 5.32395 10.9336 5.33084 10.8553 5.33219C10.3672 5.33219 10.2778 5.65187 10.0613 6.6625L10.02 6.855V6.90656L9.97876 7.05781L9.85501 6.9375C9.82702 6.90648 9.80172 6.87313 9.77939 6.83781C9.70737 6.46814 9.6637 6.09351 9.64876 5.71719C9.64586 5.68155 9.63171 5.64776 9.60833 5.62071C9.58496 5.59366 9.55359 5.57474 9.51875 5.56671C9.48392 5.55867 9.44743 5.56192 9.41456 5.57599C9.3817 5.59007 9.35417 5.61424 9.33595 5.645L8.90626 6.43906C8.90626 6.47687 8.7722 6.67625 8.23595 6.86531C8.19956 6.88029 8.16146 6.89068 8.12251 6.89625L8.0572 6.95812L8.00564 6.86187C7.89907 6.66594 8.10532 5.98875 8.2772 5.59344C8.2937 5.55273 8.29399 5.50725 8.278 5.46634C8.26202 5.42542 8.23098 5.39218 8.19126 5.37344C8.15065 5.35605 8.10483 5.35531 8.06367 5.37138C8.02252 5.38746 7.98933 5.41906 7.97126 5.45937C7.84064 5.75844 7.44532 6.75187 7.77532 7.10937C7.85205 7.17757 7.94761 7.22096 8.04945 7.23385C8.1513 7.24673 8.25466 7.2285 8.34595 7.18156C9.01626 6.94437 9.18126 6.65906 9.22251 6.54906V6.52156L9.3497 6.30156L9.38407 6.5525C9.39234 6.70561 9.42482 6.85644 9.48032 6.99937C9.50439 7.04062 9.72439 7.40156 10.0063 7.36375C10.1713 7.33969 10.2813 7.19875 10.35 6.93062L10.3913 6.74156C10.5906 5.80656 10.6319 5.6725 10.8588 5.6725C10.9496 5.67024 11.0402 5.66336 11.1303 5.65187C11.3601 5.58858 11.6052 5.61309 11.8178 5.72062C11.9347 5.84278 12 6.00531 12 6.17437C12 6.26316 12.0062 6.33458 12.0112 6.39162L12.0112 6.39163C12.0145 6.42955 12.0172 6.46111 12.0172 6.48719V6.59375H11.9209H11.8556C11.7244 6.59379 11.5949 6.62439 11.4775 6.68312C11.2934 6.78129 11.1422 6.93134 11.0426 7.11466C10.943 7.29798 10.8994 7.5065 10.9172 7.71437C10.923 7.83536 10.9681 7.95115 11.0456 8.0442C11.1232 8.13724 11.2289 8.20247 11.3469 8.23C11.8559 8.37327 12.3563 8.54542 12.8456 8.74562L12.8766 8.76969L13.375 9.31625L13.5228 9.89719C13.5641 10.1859 13.6225 10.6053 13.6259 10.6637V11.3512C13.6259 11.585 13.6706 12.3584 14.0041 12.5372C14.0664 12.5631 14.1341 12.5733 14.2013 12.5667C14.2685 12.5601 14.333 12.537 14.3891 12.4994C14.8566 12.1969 16.3106 10.045 15.9944 9.14437C15.7641 8.48781 15.74 8.41906 16.1284 8.20937C16.7678 7.86562 17.0806 7.47719 17.0566 7.06125C17.0535 7.03681 17.0456 7.01325 17.0332 6.99198C17.0207 6.97071 17.0042 6.95218 16.9844 6.9375C16.953 6.91053 16.9123 6.89696 16.8709 6.89969ZM8.05028 9.19594C8.21608 9.28992 8.36867 9.40552 8.50403 9.53969C8.6695 9.64752 8.85028 9.72979 9.04028 9.78375L9.07121 9.70469L9.04371 9.78375C9.05206 9.787 9.06038 9.79023 9.06867 9.79345C9.42935 9.9336 9.73902 10.0539 9.77934 10.2925C9.78796 10.3534 9.78007 10.4156 9.75649 10.4724C9.73291 10.5292 9.6945 10.5787 9.64528 10.6156L9.56621 10.6878C9.32378 10.8645 9.13179 11.1015 9.00934 11.3753C8.82715 11.7397 8.53496 12.5956 8.53496 12.5956C8.51876 12.6365 8.48806 12.6699 8.44875 12.6896C8.40943 12.7093 8.36425 12.7137 8.32184 12.7022C8.28007 12.6874 8.24582 12.6567 8.22651 12.6168C8.20721 12.5769 8.20441 12.531 8.21871 12.4891C8.21871 12.4822 8.50403 11.6194 8.69653 11.2413C8.84055 10.9334 9.05913 10.6664 9.33246 10.4644L9.44246 10.3613L9.33934 10.3028C9.19929 10.2348 9.05588 10.174 8.90965 10.1206C8.67474 10.0472 8.45558 9.93063 8.2634 9.77688C8.14677 9.65861 8.01362 9.55788 7.86809 9.47782C7.7959 9.43657 7.72028 9.38844 7.62746 9.32313L7.53465 9.25782L7.49684 9.36438C7.38402 9.74049 7.31255 10.1278 7.28371 10.5194C7.28219 10.5413 7.27622 10.5626 7.26617 10.5821C7.25612 10.6016 7.24221 10.6189 7.22528 10.6328C7.20884 10.6468 7.18959 10.6571 7.16884 10.663C7.14809 10.669 7.12631 10.6704 7.10496 10.6672C7.08308 10.6657 7.06173 10.6597 7.04223 10.6496C7.02273 10.6396 7.00548 10.6257 6.99153 10.6088C6.96382 10.5751 6.95026 10.5319 6.95371 10.4884C7.00871 9.84563 7.13934 9.04813 7.42809 8.92438C7.47407 8.90523 7.52448 8.89927 7.57366 8.90716C7.62284 8.91505 7.66885 8.93649 7.70653 8.96907C7.81614 9.05197 7.93096 9.12775 8.05028 9.19594Z"/>
</mask>
<path fill-rule="evenodd" clip-rule="evenodd" d="M12 2.8125C10.7762 2.8125 9.57994 3.17539 8.56241 3.85528C7.54488 4.53517 6.75181 5.50153 6.2835 6.63215C5.81518 7.76276 5.69265 9.00686 5.93139 10.2071C6.17014 11.4074 6.75944 12.5099 7.62478 13.3752C8.49012 14.2406 9.59262 14.8299 10.7929 15.0686C11.9931 15.3074 13.2372 15.1848 14.3679 14.7165C15.4985 14.2482 16.4648 13.4551 17.1447 12.4376C17.8246 11.4201 18.1875 10.2238 18.1875 9C18.1875 7.35897 17.5356 5.78516 16.3752 4.62478C15.2148 3.4644 13.641 2.8125 12 2.8125ZM12 14.8438C10.8442 14.8438 9.71439 14.501 8.75339 13.8589C7.79239 13.2168 7.04338 12.3041 6.60108 11.2363C6.15878 10.1685 6.04306 8.99352 6.26854 7.85994C6.49402 6.72636 7.05058 5.68511 7.86785 4.86785C8.68511 4.05058 9.72637 3.49402 10.8599 3.26854C11.9935 3.04305 13.1685 3.15878 14.2363 3.60108C15.3041 4.04338 16.2168 4.79239 16.8589 5.75339C17.501 6.71439 17.8438 7.84422 17.8438 9C17.8438 10.5499 17.2281 12.0362 16.1322 13.1322C15.0362 14.2281 13.5499 14.8438 12 14.8438ZM16.8709 6.89969C16.849 6.90056 16.8274 6.90582 16.8075 6.91515C16.7876 6.92449 16.7697 6.93771 16.755 6.95404C16.7402 6.97038 16.7289 6.98949 16.7217 7.01027C16.7144 7.03104 16.7114 7.05305 16.7128 7.075C16.7128 7.34312 16.4688 7.63187 15.96 7.91031C15.322 8.25335 15.4028 8.48342 15.6696 9.24276L15.6713 9.2475C15.8981 9.89719 14.7603 11.7844 14.2206 12.1934L14.1416 12.2553L14.0934 12.1659C13.9961 11.9031 13.9472 11.6247 13.9491 11.3444V10.6569C13.9491 10.6225 13.9491 10.4541 13.8425 9.83531L13.6706 9.14781C13.6629 9.12254 13.65 9.09914 13.6328 9.07906L13.0863 8.46719C13.0689 8.45878 13.0503 8.45299 13.0313 8.45C12.5067 8.23207 11.9695 8.04611 11.4225 7.89312C11.3297 7.8725 11.2713 7.79344 11.2541 7.66625C11.2434 7.52536 11.2729 7.38433 11.3392 7.25958C11.4056 7.13483 11.506 7.03148 11.6288 6.96156C11.7358 6.91086 11.8557 6.89407 11.9725 6.91344C12.0216 6.92624 12.073 6.92731 12.1226 6.91656C12.1721 6.90581 12.2185 6.88354 12.2578 6.85156C12.3644 6.74844 12.3678 6.58344 12.33 6.14344C12.3288 6.01432 12.3014 5.88679 12.2494 5.7686C12.1974 5.65041 12.1219 5.54403 12.0275 5.45594C11.8883 5.37128 11.7337 5.31494 11.5727 5.29017C11.4116 5.26539 11.2473 5.27266 11.0891 5.31156C11.0117 5.32395 10.9336 5.33084 10.8553 5.33219C10.3672 5.33219 10.2778 5.65187 10.0613 6.6625L10.02 6.855V6.90656L9.97876 7.05781L9.85501 6.9375C9.82702 6.90648 9.80172 6.87313 9.77939 6.83781C9.70737 6.46814 9.6637 6.09351 9.64876 5.71719C9.64586 5.68155 9.63171 5.64776 9.60833 5.62071C9.58496 5.59366 9.55359 5.57474 9.51875 5.56671C9.48392 5.55867 9.44743 5.56192 9.41456 5.57599C9.3817 5.59007 9.35417 5.61424 9.33595 5.645L8.90626 6.43906C8.90626 6.47687 8.7722 6.67625 8.23595 6.86531C8.19956 6.88029 8.16146 6.89068 8.12251 6.89625L8.0572 6.95812L8.00564 6.86187C7.89907 6.66594 8.10532 5.98875 8.2772 5.59344C8.2937 5.55273 8.29399 5.50725 8.278 5.46634C8.26202 5.42542 8.23098 5.39218 8.19126 5.37344C8.15065 5.35605 8.10483 5.35531 8.06367 5.37138C8.02252 5.38746 7.98933 5.41906 7.97126 5.45937C7.84064 5.75844 7.44532 6.75187 7.77532 7.10937C7.85205 7.17757 7.94761 7.22096 8.04945 7.23385C8.1513 7.24673 8.25466 7.2285 8.34595 7.18156C9.01626 6.94437 9.18126 6.65906 9.22251 6.54906V6.52156L9.3497 6.30156L9.38407 6.5525C9.39234 6.70561 9.42482 6.85644 9.48032 6.99937C9.50439 7.04062 9.72439 7.40156 10.0063 7.36375C10.1713 7.33969 10.2813 7.19875 10.35 6.93062L10.3913 6.74156C10.5906 5.80656 10.6319 5.6725 10.8588 5.6725C10.9496 5.67024 11.0402 5.66336 11.1303 5.65187C11.3601 5.58858 11.6052 5.61309 11.8178 5.72062C11.9347 5.84278 12 6.00531 12 6.17437C12 6.26316 12.0062 6.33458 12.0112 6.39162L12.0112 6.39163C12.0145 6.42955 12.0172 6.46111 12.0172 6.48719V6.59375H11.9209H11.8556C11.7244 6.59379 11.5949 6.62439 11.4775 6.68312C11.2934 6.78129 11.1422 6.93134 11.0426 7.11466C10.943 7.29798 10.8994 7.5065 10.9172 7.71437C10.923 7.83536 10.9681 7.95115 11.0456 8.0442C11.1232 8.13724 11.2289 8.20247 11.3469 8.23C11.8559 8.37327 12.3563 8.54542 12.8456 8.74562L12.8766 8.76969L13.375 9.31625L13.5228 9.89719C13.5641 10.1859 13.6225 10.6053 13.6259 10.6637V11.3512C13.6259 11.585 13.6706 12.3584 14.0041 12.5372C14.0664 12.5631 14.1341 12.5733 14.2013 12.5667C14.2685 12.5601 14.333 12.537 14.3891 12.4994C14.8566 12.1969 16.3106 10.045 15.9944 9.14437C15.7641 8.48781 15.74 8.41906 16.1284 8.20937C16.7678 7.86562 17.0806 7.47719 17.0566 7.06125C17.0535 7.03681 17.0456 7.01325 17.0332 6.99198C17.0207 6.97071 17.0042 6.95218 16.9844 6.9375C16.953 6.91053 16.9123 6.89696 16.8709 6.89969ZM8.05028 9.19594C8.21608 9.28992 8.36867 9.40552 8.50403 9.53969C8.6695 9.64752 8.85028 9.72979 9.04028 9.78375L9.07121 9.70469L9.04371 9.78375C9.05206 9.787 9.06038 9.79023 9.06867 9.79345C9.42935 9.9336 9.73902 10.0539 9.77934 10.2925C9.78796 10.3534 9.78007 10.4156 9.75649 10.4724C9.73291 10.5292 9.6945 10.5787 9.64528 10.6156L9.56621 10.6878C9.32378 10.8645 9.13179 11.1015 9.00934 11.3753C8.82715 11.7397 8.53496 12.5956 8.53496 12.5956C8.51876 12.6365 8.48806 12.6699 8.44875 12.6896C8.40943 12.7093 8.36425 12.7137 8.32184 12.7022C8.28007 12.6874 8.24582 12.6567 8.22651 12.6168C8.20721 12.5769 8.20441 12.531 8.21871 12.4891C8.21871 12.4822 8.50403 11.6194 8.69653 11.2413C8.84055 10.9334 9.05913 10.6664 9.33246 10.4644L9.44246 10.3613L9.33934 10.3028C9.19929 10.2348 9.05588 10.174 8.90965 10.1206C8.67474 10.0472 8.45558 9.93063 8.2634 9.77688C8.14677 9.65861 8.01362 9.55788 7.86809 9.47782C7.7959 9.43657 7.72028 9.38844 7.62746 9.32313L7.53465 9.25782L7.49684 9.36438C7.38402 9.74049 7.31255 10.1278 7.28371 10.5194C7.28219 10.5413 7.27622 10.5626 7.26617 10.5821C7.25612 10.6016 7.24221 10.6189 7.22528 10.6328C7.20884 10.6468 7.18959 10.6571 7.16884 10.663C7.14809 10.669 7.12631 10.6704 7.10496 10.6672C7.08308 10.6657 7.06173 10.6597 7.04223 10.6496C7.02273 10.6396 7.00548 10.6257 6.99153 10.6088C6.96382 10.5751 6.95026 10.5319 6.95371 10.4884C7.00871 9.84563 7.13934 9.04813 7.42809 8.92438C7.47407 8.90523 7.52448 8.89927 7.57366 8.90716C7.62284 8.91505 7.66885 8.93649 7.70653 8.96907C7.81614 9.05197 7.93096 9.12775 8.05028 9.19594Z" fill="black"/>
<path d="M8.56241 3.85528L8.67353 4.02158L8.67353 4.02158L8.56241 3.85528ZM6.2835 6.63215L6.46827 6.70868L6.46827 6.70868L6.2835 6.63215ZM5.93139 10.2071L5.73524 10.2461L5.73524 10.2461L5.93139 10.2071ZM7.62478 13.3752L7.7662 13.2338L7.7662 13.2338L7.62478 13.3752ZM14.3679 14.7165L14.2913 14.5317L14.2913 14.5317L14.3679 14.7165ZM17.1447 12.4376L17.311 12.5487L17.311 12.5487L17.1447 12.4376ZM16.3752 4.62478L16.2338 4.7662L16.2338 4.7662L16.3752 4.62478ZM8.75339 13.8589L8.64227 14.0252L8.64227 14.0252L8.75339 13.8589ZM6.60108 11.2363L6.78586 11.1598L6.78586 11.1598L6.60108 11.2363ZM6.26854 7.85994L6.07238 7.82092L6.07238 7.82092L6.26854 7.85994ZM10.8599 3.26854L10.899 3.46469L10.899 3.46469L10.8599 3.26854ZM16.8589 5.75339L16.6926 5.8645L16.6926 5.8645L16.8589 5.75339ZM16.1322 13.1322L15.9907 12.9907L15.9907 12.9907L16.1322 13.1322ZM16.8709 6.89969L16.8789 7.0996L16.8841 7.09925L16.8709 6.89969ZM16.755 6.95404L16.6065 6.82009L16.6065 6.82009L16.755 6.95404ZM16.7217 7.01027L16.9105 7.07607L16.9105 7.07607L16.7217 7.01027ZM16.7128 7.075L16.9132 7.075L16.9124 7.06234L16.7128 7.075ZM15.96 7.91031L16.0547 8.08647L16.056 8.08575L15.96 7.91031ZM15.6696 9.24276L15.8583 9.17647L15.8583 9.17646L15.6696 9.24276ZM15.6713 9.2475L15.8601 9.18156L15.86 9.1812L15.6713 9.2475ZM14.2206 12.1934L14.0998 12.034L14.0974 12.0359L14.2206 12.1934ZM14.1416 12.2553L13.9655 12.3501L14.078 12.5591L14.2648 12.4128L14.1416 12.2553ZM14.0934 12.1659L13.9059 12.2354L13.9107 12.2485L13.9174 12.2608L14.0934 12.1659ZM13.9491 11.3444L14.1491 11.3457V11.3444H13.9491ZM13.8425 9.83531L14.0396 9.80137L14.0383 9.79403L14.0365 9.7868L13.8425 9.83531ZM13.6706 9.14781L13.8649 9.09924L13.8618 9.08916L13.6706 9.14781ZM13.6328 9.07906L13.7848 8.94896L13.782 8.94582L13.6328 9.07906ZM13.0863 8.46719L13.2354 8.33395L13.209 8.30439L13.1733 8.28714L13.0863 8.46719ZM13.0313 8.45L12.9545 8.63469L12.9767 8.64388L13.0003 8.64759L13.0313 8.45ZM11.4225 7.89312L11.4765 7.70023L11.4659 7.69789L11.4225 7.89312ZM11.2541 7.66625L11.0543 7.68142L11.0559 7.69303L11.2541 7.66625ZM11.3392 7.25958L11.5158 7.35347L11.5158 7.35347L11.3392 7.25958ZM11.6288 6.96156L11.5431 6.78082L11.5363 6.78404L11.5298 6.78776L11.6288 6.96156ZM11.9725 6.91344L12.023 6.71991L12.0142 6.71762L12.0052 6.71613L11.9725 6.91344ZM12.2578 6.85156L12.3839 7.00679L12.3907 7.00132L12.3969 6.99528L12.2578 6.85156ZM12.33 6.14344L12.13 6.14525L12.1301 6.15292L12.1307 6.16056L12.33 6.14344ZM12.2494 5.7686L12.4325 5.68805L12.4325 5.68805L12.2494 5.7686ZM12.0275 5.45594L12.164 5.30972L12.149 5.29572L12.1314 5.28505L12.0275 5.45594ZM11.5727 5.29017L11.5423 5.48784L11.5423 5.48784L11.5727 5.29017ZM11.0891 5.31156L11.1207 5.50904L11.1288 5.50774L11.1368 5.50578L11.0891 5.31156ZM10.8553 5.33219L10.8553 5.53222L10.8588 5.53216L10.8553 5.33219ZM10.0613 6.6625L10.2568 6.70441L10.2568 6.7044L10.0613 6.6625ZM10.02 6.855L9.82445 6.81309L9.82001 6.83381V6.855H10.02ZM10.02 6.90656L10.213 6.95918L10.22 6.93334V6.90656H10.02ZM9.97876 7.05781L9.83935 7.20121L10.0825 7.4376L10.1717 7.11043L9.97876 7.05781ZM9.85501 6.9375L9.70621 7.07178L9.71559 7.0809L9.85501 6.9375ZM9.77939 6.83781L9.58308 6.87605L9.59026 6.91294L9.61034 6.9447L9.77939 6.83781ZM9.64876 5.71719L9.84877 5.70925L9.8481 5.70099L9.64876 5.71719ZM9.33595 5.645L9.16373 5.54301L9.16005 5.54982L9.33595 5.645ZM8.90626 6.43906L8.73036 6.34388L8.70626 6.38842V6.43906H8.90626ZM8.23595 6.86531L8.16936 6.67644L8.15982 6.68037L8.23595 6.86531ZM8.12251 6.89625L8.0942 6.69826L8.03118 6.70727L7.98496 6.75106L8.12251 6.89625ZM8.0572 6.95812L7.8809 7.05257L8.0046 7.28346L8.19475 7.10331L8.0572 6.95812ZM8.00564 6.86187L8.18193 6.76743L8.18133 6.76632L8.00564 6.86187ZM8.2772 5.59344L8.46067 5.67321L8.46255 5.66856L8.2772 5.59344ZM8.19126 5.37344L8.27667 5.19244L8.26998 5.18958L8.19126 5.37344ZM7.97126 5.45937L7.78875 5.37756L7.78798 5.37932L7.97126 5.45937ZM7.77532 7.10937L7.62836 7.24503L7.63507 7.25229L7.64245 7.25886L7.77532 7.10937ZM8.04945 7.23385L8.02435 7.43226L8.02435 7.43226L8.04945 7.23385ZM8.34595 7.18156L8.27923 6.99302L8.2665 6.99752L8.25449 7.0037L8.34595 7.18156ZM9.22251 6.54906L9.40978 6.61929L9.42251 6.58533V6.54906H9.22251ZM9.22251 6.52156L9.04936 6.42146L9.02251 6.46791V6.52156H9.22251ZM9.3497 6.30156L9.54785 6.27442L9.46864 5.69622L9.17655 6.20146L9.3497 6.30156ZM9.38407 6.5525L9.58378 6.54172L9.58334 6.5335L9.58222 6.52535L9.38407 6.5525ZM9.48032 6.99937L9.29388 7.07176L9.2996 7.0865L9.30757 7.10015L9.48032 6.99937ZM10.0063 7.36375L10.0329 7.56199L10.0351 7.56166L10.0063 7.36375ZM10.35 6.93062L10.5439 6.98033L10.5454 6.97326L10.35 6.93062ZM10.3913 6.74156L10.5867 6.78419L10.5869 6.78327L10.3913 6.74156ZM10.8588 5.6725V5.87256L10.8637 5.87244L10.8588 5.6725ZM11.1303 5.65187L11.1556 5.85027L11.1697 5.84847L11.1834 5.84469L11.1303 5.65187ZM11.8178 5.72062L11.9623 5.58235L11.9386 5.5576L11.9081 5.54214L11.8178 5.72062ZM12 6.17437L12.2 6.17437L12.2 6.17432L12 6.17437ZM12.0112 6.39162L11.8119 6.40892L11.8122 6.41152L12.0112 6.39162ZM12.0112 6.39163L12.2104 6.37433L12.2102 6.37173L12.0112 6.39163ZM12.0172 6.59375V6.79375H12.2172V6.59375H12.0172ZM11.8556 6.59375L11.8556 6.39375L11.8556 6.39375L11.8556 6.59375ZM11.4775 6.68312L11.388 6.5042L11.3834 6.50665L11.4775 6.68312ZM11.0426 7.11466L11.2183 7.21014L11.2183 7.21014L11.0426 7.11466ZM10.9172 7.71437L11.1171 7.70478L11.1165 7.6973L10.9172 7.71437ZM11.0456 8.0442L10.892 8.17223L10.892 8.17223L11.0456 8.0442ZM11.3469 8.23L11.4011 8.03728L11.3923 8.03523L11.3469 8.23ZM12.8456 8.74562L12.9684 8.58775L12.9468 8.5709L12.9214 8.56051L12.8456 8.74562ZM12.8766 8.76969L13.0243 8.63492L13.0128 8.6223L12.9994 8.61181L12.8766 8.76969ZM13.375 9.31625L13.5688 9.26693L13.5565 9.21845L13.5228 9.18148L13.375 9.31625ZM13.5228 9.89719L13.7208 9.8689L13.7193 9.85827L13.7166 9.84787L13.5228 9.89719ZM13.6259 10.6637H13.8263L13.8256 10.652L13.6259 10.6637ZM14.0041 12.5372L13.9096 12.7135L13.9182 12.7181L13.9272 12.7218L14.0041 12.5372ZM14.2013 12.5667L14.1818 12.3676L14.1818 12.3676L14.2013 12.5667ZM14.3891 12.4994L14.2804 12.3314L14.2777 12.3332L14.3891 12.4994ZM15.9944 9.14437L15.8057 9.21057L15.8057 9.21064L15.9944 9.14437ZM16.1284 8.20937L16.0337 8.03322L16.0334 8.03338L16.1284 8.20937ZM17.0566 7.06125L17.2567 7.04967L17.255 7.03651L17.0566 7.06125ZM17.0332 6.99198L16.8604 7.09275L16.8604 7.09276L17.0332 6.99198ZM16.9844 6.9375L16.8541 7.08924L16.8595 7.09386L16.8652 7.09808L16.9844 6.9375ZM8.50403 9.53969L8.36323 9.68173L8.37773 9.69611L8.39484 9.70726L8.50403 9.53969ZM8.05028 9.19594L7.95104 9.36959L7.95165 9.36993L8.05028 9.19594ZM9.04028 9.78375L8.98564 9.97614L9.16034 10.0258L9.22652 9.85663L9.04028 9.78375ZM9.07121 9.70469L9.26011 9.77039L8.88497 9.63181L9.07121 9.70469ZM9.04371 9.78375L8.85481 9.71805L8.79144 9.90024L8.97122 9.97015L9.04371 9.78375ZM9.06867 9.79345L9.14111 9.60703L9.1411 9.60703L9.06867 9.79345ZM9.77934 10.2925L9.97744 10.2645L9.97654 10.2592L9.77934 10.2925ZM9.75649 10.4724L9.94122 10.549L9.94122 10.549L9.75649 10.4724ZM9.64528 10.6156L9.52525 10.4556L9.51754 10.4614L9.51042 10.4679L9.64528 10.6156ZM9.56621 10.6878L9.68399 10.8495L9.69292 10.843L9.70107 10.8355L9.56621 10.6878ZM9.00934 11.3753L9.18839 11.4648L9.19192 11.457L9.00934 11.3753ZM8.53496 12.5956L8.72109 12.6695L8.72424 12.6602L8.53496 12.5956ZM8.32184 12.7022L8.255 12.8907L8.26206 12.8932L8.26929 12.8952L8.32184 12.7022ZM8.22651 12.6168L8.04648 12.7039L8.04648 12.7039L8.22651 12.6168ZM8.21871 12.4891L8.40801 12.5536L8.41871 12.5222V12.4891H8.21871ZM8.69653 11.2413L8.87486 11.332L8.87768 11.326L8.69653 11.2413ZM9.33246 10.4644L9.45133 10.6252L9.46073 10.6183L9.46925 10.6103L9.33246 10.4644ZM9.44246 10.3613L9.57925 10.5072L9.77755 10.3213L9.54107 10.1872L9.44246 10.3613ZM9.33934 10.3028L9.43814 10.1285L9.42667 10.1229L9.33934 10.3028ZM8.90965 10.1206L8.97834 9.93256L8.96932 9.92973L8.90965 10.1206ZM8.2634 9.77688L8.121 9.91731L8.12926 9.92569L8.13846 9.93305L8.2634 9.77688ZM7.86809 9.47782L7.76885 9.65149L7.77169 9.65305L7.86809 9.47782ZM7.62746 9.32313L7.74256 9.15957L7.74256 9.15957L7.62746 9.32313ZM7.53465 9.25782L7.64975 9.09425L7.43428 8.94263L7.34617 9.19093L7.53465 9.25782ZM7.49684 9.36438L7.30812 9.29741L7.30527 9.30691L7.49684 9.36438ZM7.28371 10.5194L7.08425 10.5047L7.0842 10.5054L7.28371 10.5194ZM7.22528 10.6328L7.09809 10.4784L7.09571 10.4805L7.22528 10.6328ZM7.16884 10.663L7.1139 10.4707L7.1139 10.4707L7.16884 10.663ZM7.10496 10.6672L7.13449 10.4694L7.12673 10.4682L7.1189 10.4677L7.10496 10.6672ZM7.04223 10.6496L7.13382 10.4719L7.13382 10.4719L7.04223 10.6496ZM6.99153 10.6088L6.83705 10.7358L6.83717 10.7359L6.99153 10.6088ZM6.95371 10.4884L6.75444 10.4714L6.75434 10.4726L6.95371 10.4884ZM7.42809 8.92438L7.3512 8.73974L7.34931 8.74055L7.42809 8.92438ZM7.70653 8.96907L7.57545 9.12069L7.58588 9.12858L7.70653 8.96907ZM8.67353 4.02158C9.65816 3.36366 10.8158 3.0125 12 3.0125V2.6125C10.7367 2.6125 9.50172 2.98712 8.4513 3.68899L8.67353 4.02158ZM6.46827 6.70868C6.92145 5.61461 7.68889 4.67949 8.67353 4.02158L8.4513 3.68899C7.40088 4.39086 6.58218 5.38845 6.09872 6.55561L6.46827 6.70868ZM6.12755 10.1681C5.89652 9.00664 6.01509 7.80276 6.46827 6.70868L6.09872 6.55561C5.61527 7.72277 5.48877 9.00709 5.73524 10.2461L6.12755 10.1681ZM7.7662 13.2338C6.92883 12.3964 6.35858 11.3296 6.12755 10.1681L5.73524 10.2461C5.9817 11.4852 6.59005 12.6233 7.48336 13.5166L7.7662 13.2338ZM10.8319 14.8725C9.67044 14.6414 8.60357 14.0712 7.7662 13.2338L7.48336 13.5166C8.37667 14.41 9.51481 15.0183 10.7539 15.2648L10.8319 14.8725ZM14.2913 14.5317C13.1972 14.9849 11.9934 15.1035 10.8319 14.8725L10.7539 15.2648C11.9929 15.5112 13.2772 15.3847 14.4444 14.9013L14.2913 14.5317ZM16.9784 12.3265C16.3205 13.3111 15.3854 14.0785 14.2913 14.5317L14.4444 14.9013C15.6116 14.4178 16.6091 13.5991 17.311 12.5487L16.9784 12.3265ZM17.9875 9C17.9875 10.1842 17.6363 11.3418 16.9784 12.3265L17.311 12.5487C18.0129 11.4983 18.3875 10.2633 18.3875 9H17.9875ZM16.2338 4.7662C17.3567 5.88907 17.9875 7.41202 17.9875 9H18.3875C18.3875 7.30593 17.7145 5.68124 16.5166 4.48336L16.2338 4.7662ZM12 3.0125C13.588 3.0125 15.1109 3.64332 16.2338 4.7662L16.5166 4.48336C15.3188 3.28547 13.6941 2.6125 12 2.6125V3.0125ZM8.64227 14.0252C9.63616 14.6893 10.8047 15.0438 12 15.0438V14.6437C10.8838 14.6437 9.79261 14.3127 8.8645 13.6926L8.64227 14.0252ZM6.41631 11.3128C6.87374 12.4172 7.64839 13.3611 8.64227 14.0252L8.8645 13.6926C7.93639 13.0725 7.21302 12.191 6.78586 11.1598L6.41631 11.3128ZM6.07238 7.82092C5.83918 8.9933 5.95887 10.2085 6.41631 11.3128L6.78586 11.1598C6.3587 10.1285 6.24693 8.99374 6.4647 7.89896L6.07238 7.82092ZM7.72643 4.72642C6.88119 5.57166 6.30558 6.64855 6.07238 7.82092L6.4647 7.89896C6.68246 6.80418 7.21998 5.79856 8.00927 5.00927L7.72643 4.72642ZM10.8209 3.07238C9.64855 3.30558 8.57166 3.88119 7.72643 4.72642L8.00927 5.00927C8.79856 4.21997 9.80418 3.68246 10.899 3.46469L10.8209 3.07238ZM14.3128 3.4163C13.2085 2.95887 11.9933 2.83918 10.8209 3.07238L10.899 3.46469C11.9937 3.24693 13.1285 3.35869 14.1598 3.78585L14.3128 3.4163ZM17.0252 5.64227C16.3611 4.64838 15.4172 3.87374 14.3128 3.4163L14.1598 3.78585C15.191 4.21302 16.0725 4.93639 16.6926 5.8645L17.0252 5.64227ZM18.0438 9C18.0438 7.80466 17.6893 6.63616 17.0252 5.64227L16.6926 5.8645C17.3128 6.79261 17.6438 7.88377 17.6438 9H18.0438ZM16.2736 13.2736C17.407 12.1402 18.0438 10.6029 18.0438 9H17.6438C17.6438 10.4968 17.0491 11.9323 15.9907 12.9907L16.2736 13.2736ZM12 15.0438C13.6029 15.0438 15.1402 14.407 16.2736 13.2736L15.9907 12.9907C14.9323 14.0491 13.4968 14.6437 12 14.6437V15.0438ZM16.8923 7.09625C16.8881 7.09823 16.8835 7.09934 16.8789 7.09953L16.863 6.69984C16.8144 6.70177 16.7666 6.71341 16.7226 6.73406L16.8923 7.09625ZM16.9035 7.088C16.9004 7.09146 16.8966 7.09427 16.8923 7.09625L16.7226 6.73406C16.6785 6.75471 16.639 6.78396 16.6065 6.82009L16.9035 7.088ZM16.9105 7.07607C16.909 7.08047 16.9066 7.08453 16.9035 7.088L16.6065 6.82009C16.5739 6.85623 16.5488 6.89851 16.5328 6.94446L16.9105 7.07607ZM16.9124 7.06234C16.9127 7.067 16.9121 7.07167 16.9105 7.07607L16.5328 6.94446C16.5168 6.9904 16.5101 7.03909 16.5132 7.08765L16.9124 7.06234ZM16.056 8.08575C16.3222 7.94006 16.5317 7.78515 16.6768 7.62149C16.8223 7.45741 16.9128 7.27294 16.9128 7.075H16.5128C16.5128 7.14518 16.4813 7.23915 16.3776 7.35609C16.2735 7.47344 16.1065 7.60212 15.864 7.73487L16.056 8.08575ZM15.8583 9.17646C15.7906 8.98396 15.7387 8.83579 15.7061 8.71164C15.6734 8.58724 15.6657 8.50636 15.6737 8.44701C15.6861 8.35449 15.7447 8.25317 16.0547 8.08647L15.8653 7.73416C15.5373 7.91049 15.3172 8.09573 15.2773 8.39383C15.259 8.5298 15.2817 8.67026 15.3193 8.81328C15.3569 8.95655 15.4151 9.1219 15.4809 9.30906L15.8583 9.17646ZM15.86 9.1812L15.8583 9.17647L15.4809 9.30906L15.4826 9.31379L15.86 9.1812ZM14.3414 12.3528C14.5003 12.2324 14.6865 12.0184 14.8683 11.77C15.0531 11.5176 15.2437 11.215 15.4097 10.9051C15.5753 10.596 15.7193 10.2738 15.8076 9.98234C15.8925 9.70226 15.9393 9.40846 15.8601 9.18156L15.4824 9.31344C15.5166 9.41138 15.5064 9.59712 15.4248 9.86639C15.3467 10.1243 15.2151 10.4213 15.0571 10.7163C14.8995 11.0105 14.7187 11.2971 14.5455 11.5338C14.3692 11.7747 14.2108 11.9499 14.0998 12.034L14.3414 12.3528ZM14.2648 12.4128L14.3439 12.3509L14.0974 12.0359L14.0183 12.0978L14.2648 12.4128ZM13.9174 12.2608L13.9655 12.3501L14.3177 12.1605L14.2695 12.0711L13.9174 12.2608ZM13.7491 11.343C13.747 11.6475 13.8001 11.9499 13.9059 12.2354L14.281 12.0965C14.192 11.8563 14.1473 11.6019 14.1491 11.3457L13.7491 11.343ZM13.7491 10.6569V11.3444H14.1491V10.6569H13.7491ZM13.6454 9.86926C13.7512 10.4833 13.7491 10.639 13.7491 10.6569H14.1491C14.1491 10.606 14.147 10.4248 14.0396 9.80137L13.6454 9.86926ZM13.4766 9.19632L13.6485 9.88382L14.0365 9.7868L13.8647 9.0993L13.4766 9.19632ZM13.4809 9.20914C13.4802 9.20835 13.4797 9.20744 13.4794 9.20646L13.8618 9.08916C13.846 9.03764 13.8198 8.98992 13.7847 8.94899L13.4809 9.20914ZM12.9371 8.60042L13.4837 9.2123L13.782 8.94582L13.2354 8.33395L12.9371 8.60042ZM13.0003 8.64759C12.9999 8.64753 12.9995 8.64741 12.9992 8.64723L13.1733 8.28714C13.1382 8.27015 13.1008 8.25844 13.0622 8.25241L13.0003 8.64759ZM11.3686 8.08573C11.9079 8.23654 12.4375 8.41986 12.9545 8.63469L13.108 8.26531C12.576 8.04428 12.0312 7.85567 11.4764 7.70051L11.3686 8.08573ZM11.0559 7.69303C11.0794 7.8669 11.1737 8.04272 11.3791 8.08836L11.4659 7.69789C11.4652 7.69773 11.4667 7.69801 11.469 7.6995C11.4712 7.70095 11.4716 7.70191 11.4706 7.70052C11.4679 7.69688 11.4578 7.68024 11.4523 7.63947L11.0559 7.69303ZM11.1627 7.16568C11.0785 7.32389 11.0411 7.50273 11.0546 7.68139L11.4535 7.65111C11.4457 7.54799 11.4673 7.44478 11.5158 7.35347L11.1627 7.16568ZM11.5298 6.78776C11.3741 6.87642 11.2468 7.00748 11.1627 7.16569L11.5158 7.35347C11.5644 7.26217 11.6379 7.18653 11.7277 7.13536L11.5298 6.78776ZM12.0052 6.71613C11.8482 6.6901 11.687 6.71267 11.5431 6.78082L11.7144 7.1423C11.7846 7.10906 11.8632 7.09805 11.9398 7.11074L12.0052 6.71613ZM12.0802 6.7211C12.0613 6.7252 12.0417 6.72479 12.023 6.71991L11.922 7.10696C12.0015 7.12769 12.0847 7.12942 12.1649 7.11201L12.0802 6.7211ZM12.1317 6.69633C12.1167 6.70852 12.0991 6.71701 12.0802 6.7211L12.1649 7.11201C12.2452 7.09461 12.3202 7.05856 12.3839 7.00679L12.1317 6.69633ZM12.1307 6.16056C12.1499 6.38324 12.1565 6.5174 12.1488 6.60657C12.1418 6.6874 12.1254 6.7014 12.1187 6.70784L12.3969 6.99528C12.4968 6.8986 12.5354 6.77853 12.5473 6.64108C12.5585 6.51197 12.548 6.34364 12.5293 6.12631L12.1307 6.16056ZM12.0664 5.84915C12.1074 5.94251 12.1291 6.04325 12.13 6.14525L12.53 6.14162C12.5286 5.98538 12.4954 5.83106 12.4325 5.68805L12.0664 5.84915ZM11.8911 5.60216C11.9656 5.67175 12.0253 5.75578 12.0664 5.84915L12.4325 5.68805C12.3696 5.54504 12.2782 5.41632 12.164 5.30972L11.8911 5.60216ZM11.5423 5.48784C11.6773 5.50861 11.8069 5.55584 11.9236 5.62682L12.1314 5.28505C11.9697 5.18671 11.7902 5.12127 11.6031 5.09249L11.5423 5.48784ZM11.1368 5.50578C11.2695 5.47316 11.4073 5.46707 11.5423 5.48784L11.6031 5.09249C11.416 5.06371 11.2251 5.07216 11.0413 5.11734L11.1368 5.50578ZM10.8588 5.53216C10.9465 5.53065 11.034 5.52293 11.1207 5.50904L11.0574 5.11408C10.9894 5.12498 10.9208 5.13104 10.8519 5.13222L10.8588 5.53216ZM10.2568 6.7044C10.3677 6.18719 10.4389 5.88817 10.5328 5.71276C10.5757 5.63263 10.6159 5.59385 10.6547 5.57175C10.6949 5.54886 10.7542 5.53219 10.8553 5.53219V5.13219C10.7123 5.13219 10.5774 5.15547 10.4568 5.22411C10.3349 5.29353 10.2477 5.39783 10.1801 5.52395C10.0532 5.76104 9.97143 6.12718 9.8657 6.62059L10.2568 6.7044ZM10.2156 6.89691L10.2568 6.70441L9.8657 6.62059L9.82445 6.81309L10.2156 6.89691ZM10.22 6.90656V6.855H9.82001V6.90656H10.22ZM10.1717 7.11043L10.213 6.95918L9.82706 6.85394L9.78581 7.00519L10.1717 7.11043ZM9.71559 7.0809L9.83935 7.20121L10.1182 6.91441L9.99443 6.7941L9.71559 7.0809ZM9.61034 6.9447C9.63875 6.98962 9.67093 7.03203 9.70653 7.07149L10.0035 6.80351C9.98311 6.78092 9.96469 6.75664 9.94843 6.73092L9.61034 6.9447ZM9.44892 5.72512C9.46426 6.11162 9.50911 6.49639 9.58308 6.87605L9.9757 6.79957C9.90563 6.4399 9.86314 6.0754 9.8486 5.70925L9.44892 5.72512ZM9.45699 5.75146C9.45261 5.74639 9.44996 5.74006 9.44942 5.73339L9.8481 5.70099C9.84177 5.62304 9.8108 5.54914 9.75967 5.48996L9.45699 5.75146ZM9.47378 5.76158C9.46725 5.76008 9.46137 5.75653 9.45699 5.75146L9.75967 5.48996C9.70855 5.43078 9.63992 5.38941 9.56372 5.37183L9.47378 5.76158ZM9.4933 5.75984C9.48714 5.76248 9.48031 5.76309 9.47378 5.76158L9.56372 5.37183C9.48753 5.35424 9.40771 5.36136 9.33582 5.39215L9.4933 5.75984ZM9.50803 5.74691C9.50462 5.75268 9.49946 5.7572 9.4933 5.75984L9.33582 5.39215C9.26394 5.42294 9.20371 5.4758 9.16386 5.54308L9.50803 5.74691ZM9.08216 6.53424L9.51185 5.74018L9.16005 5.54982L8.73036 6.34388L9.08216 6.53424ZM8.30245 7.05393C8.58563 6.95409 8.77356 6.84778 8.89499 6.75334C8.95552 6.70625 9.00171 6.66042 9.03487 6.61773C9.05132 6.59655 9.06644 6.57376 9.07839 6.54982C9.08719 6.53218 9.10626 6.49103 9.10626 6.43906H8.70626C8.70626 6.41435 8.71126 6.39628 8.71362 6.38869C8.71642 6.37968 8.71924 6.37369 8.72052 6.37114C8.72304 6.36608 8.72349 6.36654 8.719 6.37233C8.71027 6.38356 8.68942 6.40648 8.64941 6.4376C8.56974 6.49956 8.42252 6.58747 8.16945 6.67669L8.30245 7.05393ZM8.15082 7.09424C8.20618 7.08632 8.26035 7.07155 8.31208 7.05025L8.15982 6.68037C8.13877 6.68903 8.11674 6.69504 8.0942 6.69826L8.15082 7.09424ZM8.19475 7.10331L8.26006 7.04144L7.98496 6.75106L7.91965 6.81293L8.19475 7.10331ZM7.82934 6.95632L7.8809 7.05257L8.23349 6.86368L8.18193 6.76743L7.82934 6.95632ZM8.09378 5.51369C8.00384 5.72055 7.90548 5.9994 7.84277 6.25472C7.81149 6.3821 7.78762 6.50947 7.77946 6.62217C7.77207 6.7243 7.77381 6.85422 7.82994 6.95743L8.18133 6.76632C8.18418 6.77156 8.17174 6.74335 8.17842 6.65105C8.18433 6.56932 8.20279 6.46595 8.23123 6.35012C8.28798 6.11904 8.37868 5.86163 8.46061 5.67318L8.09378 5.51369ZM8.09171 5.53911C8.0891 5.53241 8.08914 5.52497 8.09184 5.51831L8.46255 5.66856C8.49825 5.58049 8.49887 5.48209 8.4643 5.39357L8.09171 5.53911ZM8.10591 5.55431C8.09941 5.55124 8.09433 5.5458 8.09171 5.53911L8.4643 5.39357C8.42972 5.30504 8.36256 5.23312 8.27661 5.19256L8.10591 5.55431ZM8.13644 5.55768C8.12873 5.56069 8.12015 5.56055 8.11254 5.55729L8.26998 5.18958C8.18115 5.15154 8.08092 5.14993 7.9909 5.18509L8.13644 5.55768ZM8.15376 5.54119C8.15038 5.54874 8.14416 5.55466 8.13644 5.55768L7.9909 5.18509C7.90089 5.22026 7.82829 5.28938 7.78876 5.37756L8.15376 5.54119ZM7.92228 6.97372C7.8849 6.93322 7.8543 6.85851 7.84811 6.73294C7.84204 6.60991 7.86078 6.4624 7.89573 6.30611C7.96549 5.99425 8.09104 5.68482 8.15454 5.53943L7.78798 5.37932C7.72086 5.53299 7.58344 5.86981 7.50538 6.2188C7.46643 6.39295 7.44005 6.57952 7.44859 6.75265C7.45701 6.92325 7.50074 7.10678 7.62836 7.24503L7.92228 6.97372ZM8.07456 7.03543C8.01275 7.02761 7.95475 7.00128 7.90819 6.95989L7.64245 7.25886C7.74934 7.35387 7.88247 7.41432 8.02435 7.43226L8.07456 7.03543ZM8.25449 7.0037C8.19909 7.03218 8.13636 7.04325 8.07456 7.03543L8.02435 7.43226C8.16623 7.45021 8.31022 7.42482 8.4374 7.35942L8.25449 7.0037ZM9.03524 6.47884C9.01996 6.51959 8.90962 6.76996 8.27923 6.99302L8.41266 7.3701C9.1229 7.11879 9.34256 6.79853 9.40978 6.61929L9.03524 6.47884ZM9.02251 6.52156V6.54906H9.42251V6.52156H9.02251ZM9.17655 6.20146L9.04936 6.42146L9.39566 6.62166L9.52285 6.40166L9.17655 6.20146ZM9.58222 6.52535L9.54785 6.27442L9.15155 6.3287L9.18592 6.57964L9.58222 6.52535ZM9.66676 6.92698C9.61891 6.80375 9.59091 6.67372 9.58378 6.54172L9.18436 6.56328C9.19377 6.7375 9.23073 6.90912 9.29388 7.07176L9.66676 6.92698ZM9.97967 7.16552C9.93239 7.17187 9.86634 7.1459 9.78604 7.06782C9.71163 6.99547 9.66128 6.91267 9.65308 6.8986L9.30757 7.10015C9.32342 7.12733 9.39511 7.24562 9.50719 7.3546C9.61337 7.45785 9.79826 7.59344 10.0329 7.56197L9.97967 7.16552ZM10.1563 6.88095C10.0924 7.13001 10.0159 7.16023 9.9774 7.16584L10.0351 7.56166C10.3266 7.51914 10.4701 7.26748 10.5437 6.9803L10.1563 6.88095ZM10.1959 6.69893L10.1546 6.88799L10.5454 6.97326L10.5867 6.78419L10.1959 6.69893ZM10.8588 5.4725C10.7838 5.4725 10.6907 5.48316 10.6035 5.54412C10.5198 5.6026 10.4685 5.68865 10.4305 5.77851C10.3575 5.95103 10.2932 6.24225 10.1957 6.69985L10.5869 6.78327C10.6887 6.30588 10.7447 6.06256 10.7989 5.9343C10.8245 5.87377 10.8385 5.86786 10.8326 5.87199C10.8232 5.87859 10.8203 5.8725 10.8588 5.8725V5.4725ZM11.105 5.45348C11.0217 5.4641 10.9378 5.47047 10.8538 5.47256L10.8637 5.87244C10.9613 5.87001 11.0588 5.86261 11.1556 5.85027L11.105 5.45348ZM11.9081 5.54214C11.6511 5.41218 11.3549 5.38256 11.0772 5.45906L11.1834 5.84469C11.3653 5.7946 11.5593 5.81399 11.7276 5.8991L11.9081 5.54214ZM12.2 6.17432C12.2 5.95376 12.1148 5.74171 11.9623 5.58235L11.6733 5.85889C11.7546 5.94384 11.8 6.05686 11.8 6.17442L12.2 6.17432ZM12.2104 6.37432C12.2055 6.31772 12.2 6.25378 12.2 6.17437H11.8C11.8 6.27254 11.8069 6.35144 11.8119 6.40892L12.2104 6.37432ZM12.2102 6.37173L12.2102 6.37172L11.8122 6.41152L11.8122 6.41153L12.2102 6.37173ZM12.2172 6.48719C12.2172 6.45052 12.2134 6.40918 12.2104 6.37433L11.8119 6.40893C11.8155 6.44991 11.8172 6.4717 11.8172 6.48719H12.2172ZM12.2172 6.59375V6.48719H11.8172V6.59375H12.2172ZM11.9209 6.79375H12.0172V6.39375H11.9209V6.79375ZM11.8556 6.79375H11.9209V6.39375H11.8556V6.79375ZM11.567 6.86199C11.6566 6.81714 11.7555 6.79378 11.8557 6.79375L11.8556 6.39375C11.6933 6.3938 11.5332 6.43163 11.388 6.50426L11.567 6.86199ZM11.2183 7.21014C11.2992 7.06123 11.4221 6.93934 11.5716 6.8596L11.3834 6.50665C11.1648 6.62324 10.9852 6.80145 10.8669 7.01918L11.2183 7.21014ZM11.1165 7.6973C11.102 7.52844 11.1374 7.35906 11.2183 7.21014L10.8669 7.01918C10.7486 7.2369 10.6968 7.48456 10.7179 7.73145L11.1165 7.6973ZM11.1993 7.91616C11.1496 7.85653 11.1207 7.78232 11.117 7.70479L10.7174 7.72396C10.7253 7.88839 10.7866 8.04577 10.892 8.17223L11.1993 7.91616ZM11.3923 8.03523C11.3167 8.01759 11.249 7.97579 11.1993 7.91616L10.892 8.17223C10.9974 8.2987 11.1411 8.38736 11.3014 8.42477L11.3923 8.03523ZM12.9214 8.56051C12.4249 8.35743 11.9174 8.18281 11.4011 8.03748L11.2927 8.42252C11.7944 8.56373 12.2876 8.73341 12.7699 8.93073L12.9214 8.56051ZM12.9994 8.61181L12.9684 8.58775L12.7228 8.90349L12.7538 8.92756L12.9994 8.61181ZM13.5228 9.18148L13.0243 8.63492L12.7288 8.90445L13.2272 9.45101L13.5228 9.18148ZM13.7166 9.84787L13.5688 9.26693L13.1812 9.36556L13.329 9.9465L13.7166 9.84787ZM13.8256 10.652C13.8215 10.5826 13.761 10.15 13.7208 9.8689L13.3248 9.92547C13.3454 10.0696 13.3703 10.2462 13.3904 10.3938C13.4005 10.4677 13.4093 10.5339 13.4158 10.5851C13.419 10.6107 13.4216 10.6321 13.4235 10.6485C13.4244 10.6567 13.4251 10.6633 13.4256 10.6683C13.4262 10.6738 13.4263 10.6758 13.4263 10.6755L13.8256 10.652ZM13.8259 11.3512V10.6637H13.4259V11.3512H13.8259ZM14.0986 12.3609C14.0658 12.3433 14.0245 12.3018 13.9829 12.2193C13.9423 12.1387 13.9099 12.0359 13.8855 11.9227C13.8366 11.6963 13.8259 11.4597 13.8259 11.3512H13.4259C13.4259 11.4766 13.4376 11.7436 13.4945 12.007C13.5229 12.1387 13.5642 12.2774 13.6257 12.3994C13.6863 12.5195 13.7756 12.6417 13.9096 12.7135L14.0986 12.3609ZM14.1818 12.3676C14.1474 12.371 14.1128 12.3658 14.081 12.3526L13.9272 12.7218C14.02 12.7605 14.1209 12.7755 14.2209 12.7657L14.1818 12.3676ZM14.2777 12.3332C14.2491 12.3524 14.2161 12.3643 14.1818 12.3676L14.2209 12.7657C14.3209 12.7559 14.4169 12.7215 14.5004 12.6655L14.2777 12.3332ZM15.8057 9.21064C15.8632 9.37452 15.8469 9.62682 15.751 9.94895C15.6574 10.2634 15.4978 10.6124 15.3108 10.949C15.1242 11.2849 14.9138 11.6023 14.7226 11.8529C14.5253 12.1114 14.3651 12.2767 14.2804 12.3315L14.4977 12.6673C14.6468 12.5708 14.8436 12.3537 15.0406 12.0955C15.2436 11.8294 15.4646 11.4958 15.6605 11.1433C15.8559 10.7916 16.0297 10.4148 16.1344 10.0631C16.2368 9.71896 16.2837 9.36454 16.1831 9.07811L15.8057 9.21064ZM16.0334 8.03338C15.9364 8.08577 15.8437 8.14012 15.7737 8.20639C15.6951 8.28087 15.6433 8.37182 15.6306 8.48751C15.6193 8.58998 15.6409 8.69739 15.671 8.80471C15.7017 8.91441 15.7489 9.04889 15.8057 9.21057L16.1831 9.07817C16.1247 8.91157 16.0826 8.79125 16.0561 8.69685C16.029 8.60007 16.0257 8.55408 16.0282 8.53108C16.0293 8.5213 16.0299 8.51471 16.0488 8.49681C16.0763 8.4707 16.1263 8.43782 16.2235 8.38537L16.0334 8.03338ZM16.8569 7.0728C16.8738 7.36491 16.6579 7.69767 16.0337 8.03322L16.2232 8.38553C16.8778 8.03357 17.2875 7.58946 17.2562 7.0497L16.8569 7.0728ZM16.8604 7.09276C16.8592 7.09067 16.8584 7.08837 16.8581 7.08598L17.255 7.03651C17.2486 6.98526 17.2319 6.93583 17.2059 6.8912L16.8604 7.09276ZM16.8652 7.09808C16.8632 7.09665 16.8616 7.09483 16.8604 7.09275L17.2059 6.89121C17.1799 6.84659 17.1451 6.80771 17.1036 6.77692L16.8652 7.09808ZM16.8841 7.09925C16.8732 7.09997 16.8624 7.09638 16.8541 7.08924L17.1147 6.78576C17.0435 6.72469 16.9513 6.69394 16.8578 6.70012L16.8841 7.09925ZM8.64482 9.39765C8.49688 9.25101 8.33012 9.12467 8.1489 9.02195L7.95165 9.36993C8.10205 9.45518 8.24045 9.56003 8.36323 9.68173L8.64482 9.39765ZM9.09492 9.59136C8.92425 9.54289 8.76186 9.46898 8.61321 9.37212L8.39484 9.70726C8.57715 9.82605 8.77632 9.9167 8.98564 9.97614L9.09492 9.59136ZM8.88497 9.63181L8.85403 9.71087L9.22652 9.85663L9.25746 9.77757L8.88497 9.63181ZM9.23261 9.84946L9.26011 9.77039L8.88232 9.63899L8.85481 9.71805L9.23261 9.84946ZM9.1411 9.60703C9.13281 9.60381 9.12452 9.60058 9.1162 9.59735L8.97122 9.97015C8.9796 9.97341 8.98794 9.97665 8.99623 9.97987L9.1411 9.60703ZM9.97654 10.2592C9.94188 10.0541 9.79344 9.92343 9.64792 9.8351C9.50218 9.74663 9.31614 9.67504 9.14111 9.60703L8.99623 9.97987C9.18187 10.052 9.331 10.1107 9.44036 10.177C9.54992 10.2435 9.57647 10.2923 9.58214 10.3258L9.97654 10.2592ZM9.94122 10.549C9.97852 10.4591 9.991 10.3609 9.97737 10.2645L9.58131 10.3205C9.58492 10.346 9.58162 10.372 9.57176 10.3958L9.94122 10.549ZM9.7653 10.7756C9.84317 10.7172 9.90392 10.6389 9.94122 10.549L9.57176 10.3958C9.56189 10.4195 9.54583 10.4402 9.52525 10.4556L9.7653 10.7756ZM9.70107 10.8355L9.78013 10.7633L9.51042 10.4679L9.43136 10.5401L9.70107 10.8355ZM9.19192 11.457C9.30012 11.215 9.46976 11.0055 9.68399 10.8495L9.44844 10.5262C9.17779 10.7234 8.96346 10.988 8.82676 11.2937L9.19192 11.457ZM8.53496 12.5956C8.72424 12.6602 8.72424 12.6602 8.72424 12.6602C8.72424 12.6602 8.72424 12.6602 8.72425 12.6602C8.72425 12.6602 8.72426 12.6602 8.72428 12.6601C8.72431 12.66 8.72436 12.6599 8.72442 12.6597C8.72455 12.6593 8.72475 12.6587 8.72502 12.658C8.72556 12.6564 8.72637 12.654 8.72744 12.6509C8.72958 12.6447 8.73276 12.6355 8.73688 12.6235C8.74512 12.5997 8.75713 12.5652 8.77213 12.5226C8.80213 12.4373 8.84399 12.3199 8.89145 12.1914C8.98763 11.9309 9.10274 11.6357 9.18822 11.4648L8.83045 11.2859C8.73375 11.4793 8.61168 11.7943 8.51621 12.0528C8.46786 12.1838 8.42528 12.3032 8.3948 12.3898C8.37956 12.4331 8.36732 12.4683 8.35887 12.4927C8.35465 12.5049 8.35137 12.5144 8.34914 12.5209C8.34803 12.5242 8.34718 12.5267 8.3466 12.5284C8.34631 12.5292 8.34608 12.5299 8.34593 12.5303C8.34586 12.5305 8.3458 12.5307 8.34576 12.5308C8.34574 12.5309 8.34572 12.5309 8.34571 12.531C8.3457 12.531 8.3457 12.531 8.3457 12.531C8.34569 12.531 8.34569 12.531 8.53496 12.5956ZM8.53819 12.8685C8.6215 12.8268 8.68653 12.7559 8.72087 12.6694L8.34906 12.5219C8.35098 12.517 8.35463 12.5131 8.3593 12.5107L8.53819 12.8685ZM8.26929 12.8952C8.35915 12.9196 8.45488 12.9101 8.53819 12.8685L8.3593 12.5107C8.36398 12.5084 8.36935 12.5078 8.37439 12.5092L8.26929 12.8952ZM8.04648 12.7039C8.08871 12.7912 8.16362 12.8583 8.255 12.8907L8.38868 12.5137C8.39651 12.5165 8.40293 12.5222 8.40655 12.5297L8.04648 12.7039ZM8.02942 12.4245C7.99813 12.5163 8.00426 12.6167 8.04648 12.7039L8.40655 12.5297C8.41016 12.5372 8.41069 12.5458 8.40801 12.5536L8.02942 12.4245ZM8.51829 11.1505C8.4157 11.352 8.29251 11.6732 8.19735 11.9364C8.14913 12.0697 8.10701 12.1913 8.07689 12.2802C8.06184 12.3245 8.04971 12.361 8.04127 12.3868C8.03707 12.3996 8.03365 12.4102 8.03119 12.418C8.03 12.4218 8.02878 12.4257 8.02775 12.4292C8.02728 12.4308 8.02645 12.4336 8.0256 12.4369C8.02521 12.4383 8.02435 12.4416 8.02343 12.4458C8.02299 12.4478 8.02217 12.4517 8.02137 12.4565C8.02098 12.4589 8.01871 12.4721 8.01871 12.4891H8.41871C8.41871 12.506 8.41646 12.5191 8.41609 12.5213C8.4153 12.5261 8.41451 12.5298 8.4141 12.5317C8.41326 12.5355 8.41249 12.5384 8.41225 12.5394C8.41191 12.5406 8.41165 12.5415 8.41154 12.5419C8.41141 12.5424 8.41134 12.5426 8.41133 12.5427C8.41132 12.5427 8.41143 12.5423 8.4117 12.5414C8.41196 12.5406 8.4123 12.5395 8.41274 12.5381C8.41455 12.5324 8.41745 12.5234 8.42143 12.5112C8.42934 12.487 8.44101 12.452 8.45571 12.4086C8.48511 12.3219 8.52635 12.2028 8.57352 12.0724C8.66914 11.8079 8.78485 11.5086 8.87476 11.332L8.51829 11.1505ZM9.2136 10.3035C8.91349 10.5253 8.6735 10.8185 8.51537 11.1565L8.87768 11.326C9.0076 11.0483 9.20477 10.8074 9.45133 10.6252L9.2136 10.3035ZM9.30568 10.2153L9.19568 10.3185L9.46925 10.6103L9.57925 10.5072L9.30568 10.2153ZM9.24074 10.4768L9.34386 10.5353L9.54107 10.1872L9.43794 10.1288L9.24074 10.4768ZM8.84104 10.3085C8.98089 10.3596 9.11806 10.4177 9.25201 10.4827L9.42667 10.1229C9.28052 10.052 9.13086 9.9885 8.97827 9.93277L8.84104 10.3085ZM8.13846 9.93305C8.35005 10.1023 8.59135 10.2307 8.84999 10.3115L8.96932 9.92973C8.75814 9.86373 8.56111 9.75893 8.38834 9.62071L8.13846 9.93305ZM7.77169 9.65305C7.90028 9.72379 8.01794 9.81281 8.121 9.91731L8.40581 9.63645C8.27561 9.50442 8.12696 9.39196 7.96449 9.30258L7.77169 9.65305ZM7.51237 9.48669C7.60938 9.55496 7.69033 9.60659 7.76886 9.65146L7.96732 9.30417C7.90148 9.26654 7.83117 9.22192 7.74256 9.15957L7.51237 9.48669ZM7.41955 9.42138L7.51237 9.48669L7.74256 9.15957L7.64975 9.09425L7.41955 9.42138ZM7.68533 9.43126L7.72314 9.3247L7.34617 9.19093L7.30835 9.2975L7.68533 9.43126ZM7.48317 10.5341C7.51095 10.157 7.57976 9.78402 7.68841 9.42184L7.30527 9.30691C7.18827 9.69695 7.11416 10.0986 7.08425 10.5047L7.48317 10.5341ZM7.44396 10.6737C7.46645 10.6301 7.47981 10.5823 7.48323 10.5333L7.0842 10.5054C7.08456 10.5002 7.08598 10.4952 7.08838 10.4905L7.44396 10.6737ZM7.35245 10.7872C7.39035 10.756 7.42148 10.7173 7.44396 10.6737L7.08838 10.4905C7.09076 10.4859 7.09407 10.4818 7.0981 10.4785L7.35245 10.7872ZM7.22379 10.8553C7.27198 10.8416 7.31666 10.8176 7.35485 10.7852L7.09571 10.4805C7.10101 10.476 7.10721 10.4726 7.1139 10.4707L7.22379 10.8553ZM7.07544 10.865C7.12501 10.8724 7.17559 10.8691 7.22379 10.8553L7.1139 10.4707C7.12059 10.4688 7.12761 10.4684 7.13449 10.4694L7.07544 10.865ZM6.95064 10.8274C6.99429 10.8499 7.04206 10.8633 7.09103 10.8667L7.1189 10.4677C7.1241 10.468 7.12918 10.4695 7.13382 10.4719L6.95064 10.8274ZM6.83717 10.7359C6.86838 10.7738 6.90699 10.805 6.95064 10.8274L7.13382 10.4719C7.13847 10.4742 7.14257 10.4776 7.14589 10.4816L6.83717 10.7359ZM6.75434 10.4726C6.74679 10.5677 6.77644 10.6621 6.83705 10.7358L7.146 10.4817C7.15119 10.488 7.15373 10.4961 7.15309 10.5043L6.75434 10.4726ZM7.34931 8.74055C7.2138 8.79862 7.12398 8.9212 7.06284 9.03754C6.99896 9.15911 6.94921 9.30715 6.9095 9.46213C6.82985 9.77306 6.7823 10.1458 6.75444 10.4714L7.15299 10.5055C7.18013 10.1883 7.2254 9.84085 7.29699 9.5614C7.33291 9.42118 7.37339 9.30646 7.41693 9.22361C7.46322 9.13552 7.498 9.11201 7.50687 9.10821L7.34931 8.74055ZM7.60535 8.70969C7.51948 8.69591 7.43148 8.70632 7.3512 8.73975L7.50498 9.10901C7.51666 9.10414 7.52947 9.10263 7.54196 9.10463L7.60535 8.70969ZM7.83733 8.81777C7.77154 8.76089 7.69122 8.72347 7.60535 8.70969L7.54196 9.10463C7.55446 9.10664 7.56615 9.11208 7.57572 9.12036L7.83733 8.81777ZM8.14951 9.0223C8.03762 8.95835 7.92996 8.88729 7.82718 8.80955L7.58588 9.12858C7.70232 9.21665 7.82429 9.29715 7.95104 9.36958L8.14951 9.0223Z" fill="black" mask="url(#path-3-outside-1)"/>
</g>
<defs>
<clipPath id="clip0">
<rect width="24" height="18" fill="white"/>
</clipPath>
</defs>
</svg>
